<svg xmlns="http://www.w3.org/2000/svg" width="124" height="26" viewBox="0 0 124 26" fill="none">
<path d="M118.537 9.81718C118.236 10.1092 117.996 10.4611 117.835 10.8509C117.674 11.2407 117.593 11.6601 117.599 12.0828C117.588 12.5195 117.664 12.954 117.822 13.3605C117.98 13.767 118.217 14.1372 118.519 14.4492C118.81 14.7603 119.162 15.0063 119.552 15.1716C119.942 15.3368 120.362 15.4175 120.785 15.4086C121.207 15.4147 121.625 15.3327 122.014 15.1676C122.403 15.0025 122.755 14.758 123.046 14.4492C123.647 13.8347 123.984 13.0046 123.984 12.1394C123.984 11.2743 123.647 10.4442 123.046 9.82968C122.751 9.52777 122.4 9.28788 122.014 9.12381C121.627 8.95974 121.212 8.87473 120.793 8.87364C120.373 8.87255 119.958 8.95541 119.57 9.11747C119.183 9.27952 118.831 9.51758 118.534 9.81797L118.537 9.81718ZM122.497 12.1719C122.497 12.5081 122.399 12.8369 122.214 13.1165C122.03 13.3962 121.768 13.6142 121.462 13.743C121.155 13.8718 120.818 13.9056 120.492 13.8401C120.167 13.7746 119.868 13.6127 119.633 13.375C119.399 13.1373 119.239 12.8344 119.174 12.5046C119.109 12.1748 119.142 11.8329 119.269 11.5223C119.396 11.2116 119.611 10.946 119.887 10.7592C120.163 10.5724 120.487 10.4727 120.819 10.4727C121.039 10.4724 121.258 10.5163 121.461 10.6016C121.665 10.6869 121.85 10.812 122.006 10.9698C122.161 11.1277 122.285 11.315 122.369 11.5213C122.453 11.7276 122.497 11.9486 122.497 12.1719Z" fill="#D72732"/>
<path d="M123.049 17.1156C122.607 16.6425 122.028 16.3235 121.396 16.2047V17.8672C121.764 18.0028 122.074 18.2649 122.272 18.6078C122.47 18.9507 122.543 19.353 122.479 19.7449C122.415 20.1368 122.217 20.4935 121.921 20.7534C121.624 21.0133 121.247 21.1598 120.855 21.1677C120.464 21.1755 120.081 21.0442 119.775 20.7964C119.469 20.5486 119.257 20.2 119.178 19.811C119.098 19.422 119.156 19.0171 119.34 18.6665C119.525 18.3159 119.824 18.0417 120.187 17.8914V16.2008C119.459 16.35 118.804 16.7488 118.333 17.3299C117.861 17.911 117.602 18.639 117.598 19.3914C117.587 19.8322 117.663 20.2708 117.82 20.6816C117.978 21.0925 118.215 21.4674 118.518 21.7844C118.807 22.0983 119.159 22.3469 119.549 22.5141C119.94 22.6813 120.36 22.7633 120.784 22.7547C121.207 22.7604 121.626 22.6771 122.015 22.51C122.405 22.343 122.755 22.0959 123.046 21.7844C123.646 21.1594 123.982 20.3216 123.982 19.4492C123.982 18.5769 123.646 17.739 123.046 17.1141" fill="#D72732"/>
<path d="M120.878 25.4531C120.754 25.4596 120.629 25.44 120.513 25.3955C120.397 25.351 120.291 25.2825 120.202 25.1945C120.113 25.1064 120.043 25.0006 119.996 24.8838C119.95 24.7669 119.927 24.6416 119.931 24.5156C119.927 24.325 119.978 24.1374 120.08 23.9768C120.181 23.8162 120.328 23.6898 120.5 23.6138C120.673 23.5378 120.864 23.5157 121.049 23.5502C121.234 23.5847 121.405 23.6743 121.539 23.8076C121.674 23.9408 121.766 24.1117 121.804 24.2984C121.843 24.4851 121.825 24.6791 121.754 24.8556C121.683 25.0322 121.562 25.1834 121.406 25.2898C121.25 25.3962 121.066 25.4531 120.878 25.4531Z" fill="#D72732"/>
<path d="M119.882 0.362489H124V1.87265H119.939H119.886H119.834C119.723 1.87996 119.614 1.91086 119.516 1.96335C119.417 2.01584 119.331 2.08875 119.262 2.17733L119.249 2.19374L119.237 2.20936C119.158 2.32097 119.109 2.45128 119.094 2.58777C119.079 2.72426 119.099 2.86233 119.152 2.98869C119.205 3.11505 119.29 3.22544 119.397 3.30924C119.504 3.39304 119.631 3.44743 119.765 3.46718H119.785H119.8H119.817H119.833H119.837H119.886C119.903 3.46718 119.921 3.46718 119.939 3.46718H122.031H124.002V4.98749H119.916H119.882H119.842C119.641 4.99771 119.451 5.0856 119.312 5.23306C119.173 5.38053 119.095 5.57635 119.095 5.78023C119.094 5.98412 119.17 6.18055 119.308 6.32912C119.446 6.47768 119.635 6.56707 119.835 6.5789H119.855H124.002V8.08202H117.604V6.57968H117.823C117.703 6.40152 117.629 6.19582 117.607 5.98124C117.607 5.96483 117.607 5.94921 117.607 5.9328C117.607 5.9164 117.607 5.90546 117.607 5.8914C117.607 5.87733 117.607 5.88515 117.607 5.88202C117.607 5.84843 117.607 5.81561 117.607 5.7828C117.607 5.7328 117.607 5.68358 117.612 5.63515C117.626 5.41376 117.671 5.19557 117.747 4.98749C117.849 4.70767 118.004 4.45058 118.203 4.23046C117.853 3.84373 117.645 3.34751 117.612 2.82421C117.612 2.77499 117.607 2.72499 117.607 2.67499C117.607 2.62499 117.607 2.57499 117.612 2.52577C117.626 2.30244 117.672 2.08239 117.749 1.87265C117.912 1.4289 118.206 1.04636 118.59 0.776413C118.974 0.506464 119.43 0.362023 119.897 0.362489" fill="#D72732"/>
<path d="M17.0363 16.9922C17.0536 15.8772 16.8443 14.7706 16.4213 13.7412C15.9983 12.7118 15.3708 11.7816 14.5778 11.0086C13.812 10.1985 12.8896 9.55725 11.8682 9.12481C10.8468 8.69237 9.74834 8.47807 8.6415 8.4953C7.54059 8.47878 6.44823 8.69357 5.4333 9.12613C4.41837 9.5587 3.50289 10.1996 2.74456 11.0086C1.96019 11.7912 1.33728 12.724 0.912097 13.7529C0.486911 14.7818 0.267944 15.8861 0.267944 17.0016C0.267944 18.117 0.486911 19.2213 0.912097 20.2502C1.33728 21.2791 1.96019 22.2119 2.74456 22.9945C3.50555 23.7987 4.42195 24.4352 5.43656 24.8644C6.45116 25.2936 7.54218 25.5062 8.6415 25.489C10.2101 25.5127 11.7515 25.0729 13.0775 24.2234V25.489H17.0324L17.0363 16.9922ZM8.65384 21.6578C7.77439 21.659 6.91434 21.3959 6.18251 20.9017C5.45068 20.4074 4.87996 19.7043 4.54256 18.8813C4.20517 18.0583 4.11625 17.1524 4.28708 16.2781C4.4579 15.4039 4.88078 14.6007 5.50222 13.97C6.12365 13.3394 6.91571 12.9098 7.77817 12.7354C8.64064 12.5611 9.53475 12.65 10.3474 12.9907C11.16 13.3315 11.8546 13.9089 12.3433 14.6498C12.8321 15.3907 13.0929 16.2619 13.0929 17.1531C13.0933 17.7443 12.9788 18.3297 12.756 18.876C12.5331 19.4223 12.2062 19.9188 11.794 20.3371C11.3818 20.7554 10.8923 21.0873 10.3535 21.3139C9.81476 21.5406 9.23719 21.6574 8.65384 21.6578Z" fill="#D72732"/>
<path d="M73.595 16.9922C73.587 15.1204 72.9668 13.3041 71.8313 11.8278C70.6958 10.3514 69.1091 9.29837 67.3199 8.8335C65.5306 8.36864 63.6398 8.51822 61.9434 9.25882C60.247 9.99942 58.8409 11.2892 57.9452 12.9262C57.0495 14.5633 56.7149 16.4551 56.9937 18.3055C57.2724 20.1558 58.1489 21.8603 59.4858 23.1519C60.8227 24.4435 62.5445 25.2493 64.3817 25.4432C66.2189 25.6371 68.0677 25.2082 69.6385 24.2234V25.4891H73.595V16.9922ZM65.2102 21.6578C64.3309 21.6587 63.4709 21.3953 62.7393 20.9009C62.0077 20.4065 61.4372 19.7033 61.1 18.8802C60.7629 18.0572 60.6742 17.1513 60.8452 16.2772C61.0162 15.403 61.4392 14.5999 62.0607 13.9695C62.6822 13.339 63.4743 12.9095 64.3367 12.7353C65.1991 12.5611 66.0932 12.6501 66.9057 12.9909C67.7182 13.3317 68.4127 13.9091 68.9014 14.65C69.39 15.3909 69.6509 16.262 69.6509 17.1531C69.6512 17.7444 69.5366 18.3299 69.3136 18.8763C69.0906 19.4226 68.7636 19.9191 68.3512 20.3374C67.9389 20.7557 67.4492 21.0876 66.9103 21.3142C66.3714 21.5407 65.7937 21.6575 65.2102 21.6578Z" fill="#D72732"/>
<path d="M31.9772 0.363281V9.74219C30.6687 8.89511 29.1438 8.45535 27.5913 8.47734C26.4845 8.46068 25.3863 8.67524 24.3649 9.10764C23.3436 9.54005 22.4211 10.181 21.655 10.9906C20.8605 11.7664 20.2321 12.6996 19.8089 13.7321C19.3857 14.7646 19.1767 15.8743 19.195 16.9922C19.1789 18.1099 19.3888 19.2191 19.8119 20.2514C20.235 21.2837 20.8623 22.2173 21.655 22.9945C22.4307 23.7852 23.3529 24.4126 24.3687 24.8407C25.3845 25.2689 26.4738 25.4893 27.5739 25.4893C28.6741 25.4893 29.7634 25.2689 30.7792 24.8407C31.795 24.4126 32.7172 23.7852 33.4929 22.9945C34.2902 22.2199 34.9216 21.2872 35.3479 20.2545C35.7742 19.2219 35.9862 18.1114 35.9707 16.9922V0.363281H31.9772ZM27.5828 21.6523C26.7045 21.6533 25.8456 21.3902 25.1149 20.8964C24.3842 20.4026 23.8144 19.7002 23.4776 18.8782C23.1409 18.0561 23.0523 17.1513 23.2231 16.2782C23.3939 15.4052 23.8164 14.6031 24.4371 13.9734C25.0578 13.3437 25.8489 12.9147 26.7103 12.7407C27.5717 12.5667 28.4646 12.6555 29.2762 12.9959C30.0877 13.3363 30.7814 13.913 31.2695 14.653C31.7575 15.393 32.018 16.2631 32.018 17.1531C32.0182 17.7438 31.9036 18.3288 31.6807 18.8746C31.4578 19.4204 31.131 19.9164 30.7189 20.3342C30.3068 20.752 29.8176 21.0834 29.2791 21.3096C28.7406 21.5358 28.1634 21.6522 27.5805 21.6523" fill="#D72732"/>
<path d="M54.8364 0.363281H50.8522V9.74219C49.5473 8.89537 48.0257 8.45556 46.4763 8.47734C45.3715 8.46087 44.2753 8.67557 43.2561 9.10802C42.2369 9.54047 41.3167 10.1814 40.5531 10.9906C39.7601 11.7672 39.133 12.7006 38.7107 13.7331C38.2884 14.7655 38.0801 15.8748 38.0985 16.9922C38.0822 18.1094 38.2915 19.2182 38.7137 20.2504C39.1358 21.2826 39.7618 22.2165 40.5531 22.9945C41.3261 23.785 42.246 24.4124 43.2596 24.8406C44.2732 25.2688 45.3604 25.4893 46.4586 25.4893C47.5567 25.4893 48.644 25.2688 49.6576 24.8406C50.6712 24.4124 51.591 23.785 52.364 22.9945C53.1599 22.219 53.79 21.2861 54.2153 20.2536C54.6406 19.221 54.852 18.1109 54.8364 16.9922V0.363281ZM46.4678 21.6562C45.5882 21.6589 44.7276 21.397 43.995 20.9037C43.2624 20.4104 42.6907 19.7079 42.3523 18.8851C42.0139 18.0624 41.924 17.1564 42.094 16.2818C42.264 15.4073 42.6863 14.6035 43.3073 13.9723C43.9284 13.3411 44.7203 12.9108 45.5828 12.736C46.4453 12.5611 47.3396 12.6495 48.1525 12.99C48.9654 13.3305 49.6603 13.9078 50.1493 14.6487C50.6382 15.3897 50.8992 16.261 50.8992 17.1523C50.9001 17.7429 50.7862 18.3279 50.564 18.8739C50.3418 19.4199 50.0156 19.9162 49.6041 20.3345C49.1926 20.7527 48.7038 21.0847 48.1657 21.3115C47.6276 21.5383 47.0506 21.6554 46.4678 21.6562Z" fill="#D72732"/>
<path d="M102.487 21.6859C102.213 21.888 102.065 22.0443 102.04 22.1547C102.027 22.2059 102.028 22.26 102.045 22.3103C102.062 22.3606 102.093 22.4048 102.134 22.4375C102.226 22.516 102.334 22.5738 102.45 22.607C102.539 22.6322 102.626 22.6638 102.71 22.7016H110.897C111.385 22.7124 111.862 22.5597 112.255 22.2672C112.641 21.9773 112.996 21.6486 113.316 21.2859C113.638 20.9214 113.929 20.594 114.19 20.3039C114.276 20.1852 114.384 20.0854 114.509 20.0107C114.634 19.936 114.772 19.888 114.916 19.8695C115.584 19.8695 115.918 20.1841 115.918 20.8133C115.921 21.8598 115.652 22.8887 115.137 23.7961C114.934 24.2744 114.603 24.6862 114.183 24.9861C113.763 25.286 113.269 25.4623 112.756 25.4953H97.7601C97.6584 25.494 97.558 25.4716 97.4652 25.4294C97.3723 25.3872 97.2891 25.3261 97.2205 25.25C97.0539 25.079 96.9268 24.8727 96.8481 24.6461C96.7603 24.398 96.7411 24.1302 96.7926 23.8719C96.8582 23.5691 97.0303 23.3009 97.2768 23.1172C98.6161 21.9599 99.9558 20.8083 101.296 19.6625C102.572 18.5785 103.778 17.4117 104.905 16.1695C105.919 15.0618 106.794 13.8317 107.51 12.507C108.165 11.3045 108.51 9.95393 108.512 8.58047C108.511 8.09356 108.435 7.60979 108.289 7.14609C108.143 6.6735 107.902 6.23652 107.582 5.8625C107.249 5.47738 106.844 5.16298 106.391 4.9375C105.879 4.68842 105.321 4.5531 104.753 4.54062C104.05 4.50616 103.345 4.55044 102.651 4.67265C102.147 4.76563 101.663 4.94447 101.219 5.20156C100.815 5.44607 100.457 5.75895 100.158 6.12656C99.8494 6.50364 99.5207 6.94401 99.1717 7.44765C98.9235 7.80026 98.6816 7.9513 98.4462 7.90078C98.2109 7.85026 98.0372 7.64192 97.9252 7.27578C97.8073 6.78756 97.7884 6.2802 97.8696 5.78437C97.9836 5.03159 98.2226 4.30383 98.5766 3.63203C98.6753 3.43099 98.8117 3.12265 98.986 2.70703C99.1517 2.30673 99.3508 1.92148 99.5811 1.55547C99.7652 1.24853 99.9977 0.974312 100.27 0.743747C100.321 0.698494 100.38 0.664022 100.444 0.642356C100.509 0.620689 100.577 0.612265 100.644 0.617578C100.712 0.62289 100.778 0.641833 100.838 0.673293C100.898 0.704753 100.952 0.748097 100.995 0.800778C101.175 0.982521 101.412 1.09589 101.665 1.12187C101.888 1.13489 102.099 1.15364 102.298 1.17812C102.555 1.19934 102.813 1.17286 103.06 1.1C103.345 1.02448 103.649 0.942705 103.972 0.854685C104.296 0.766664 104.63 0.678383 104.975 0.589841C105.328 0.501176 105.69 0.456833 106.054 0.45781C107.187 0.448588 108.315 0.606493 109.403 0.92656C110.388 1.21221 111.31 1.68637 112.119 2.32343C112.883 2.93451 113.505 3.70788 113.942 4.58906C114.398 5.52147 114.627 6.55038 114.612 7.59062C114.6 8.62226 114.352 9.63698 113.887 10.5547C113.381 11.5848 112.763 12.5544 112.045 13.4453C111.277 14.403 110.437 15.2994 109.533 16.1266C108.603 16.9828 107.685 17.7695 106.779 18.4867C105.874 19.2039 105.037 19.8331 104.268 20.3742C103.497 20.9159 102.901 21.35 102.481 21.6766" fill="#D72732"/>
<path d="M96.5721 17.7047C96.5932 18.8595 96.3094 19.999 95.7503 21.0055C95.1878 21.9826 94.4156 22.8189 93.4907 23.4523C92.4606 24.1551 91.3166 24.669 90.1109 24.9703C88.7562 25.3191 87.3632 25.491 85.9656 25.482C84.2988 25.5059 82.6358 25.3145 81.0168 24.9125C79.6076 24.5464 78.3232 23.7989 77.3009 22.75C77.2463 22.6849 77.205 22.6094 77.1793 22.5281C77.1537 22.4467 77.1441 22.3609 77.1513 22.2758C77.1512 22.0605 77.1957 21.8476 77.2816 21.6508C77.3515 21.4713 77.4676 21.314 77.6178 21.1953C77.6928 21.1459 77.7803 21.1196 77.8698 21.1196C77.9593 21.1196 78.0469 21.1459 78.1219 21.1953C79.1077 21.7942 80.1785 22.2358 81.2967 22.5047C82.6062 22.8088 83.9506 22.93 85.2925 22.8648C85.9679 22.8437 86.6359 22.7156 87.2723 22.4852C87.8729 22.2698 88.4345 21.9557 88.9344 21.5555C89.4182 21.165 89.8127 20.673 90.0908 20.1133C90.3829 19.5184 90.5302 18.8613 90.5203 18.1969C90.5682 17.6026 90.4988 17.0046 90.3159 16.4378C90.1331 15.8711 89.8407 15.3469 89.4556 14.8961C88.735 14.1201 87.8075 13.573 86.7858 13.3211C85.7029 13.0547 84.5768 13.0225 83.4808 13.2266C82.4179 13.3938 81.397 13.7675 80.4741 14.3273C80.3781 14.3845 80.2676 14.4117 80.1565 14.4055C80.0122 14.4037 79.8708 14.3647 79.7456 14.2922C79.598 14.2057 79.4756 14.0812 79.3909 13.9312C79.2816 13.7281 79.2299 13.4983 79.2414 13.2672V2.11015C79.2406 1.68218 79.371 1.26453 79.6145 0.91484C79.7885 0.712443 80.0089 0.556649 80.2565 0.461257C80.5041 0.365865 80.7711 0.333822 81.0338 0.367965C82.2287 0.367965 83.3926 0.380465 84.5254 0.405465C85.6582 0.430465 86.7848 0.449475 87.9052 0.462496C89.0257 0.475517 90.1649 0.481767 91.3228 0.481246C92.4808 0.480725 93.6945 0.442965 94.964 0.367965C95.3371 0.315881 95.517 0.480204 95.5036 0.860933C95.4693 1.31503 95.3354 1.75566 95.1119 2.15078C94.8509 2.64775 94.5172 3.10185 94.1221 3.49765C93.9761 3.67505 93.7971 3.82155 93.5953 3.92879C93.3934 4.03603 93.1726 4.10191 92.9456 4.12265C91.6258 4.12265 90.493 4.09661 89.5474 4.04453C88.6017 3.99244 87.724 3.94817 86.9146 3.91171C86.1051 3.87369 85.3084 3.86744 84.5247 3.89296C83.7409 3.91849 82.8632 3.99427 81.8919 4.12031V10.8391C83.3963 10.2921 84.9802 10.0035 86.5784 9.98515C88.2028 9.93476 89.8228 10.1855 91.3583 10.725C92.7888 11.2223 94.0686 12.0849 95.0742 13.2297C96.1089 14.4793 96.6422 16.0775 96.5683 17.707" fill="#D72732"/>
</svg>