<svg version="1.1" id="Layer_1" xmlns:x="ns_extend;" xmlns:i="ns_ai;" xmlns:graph="ns_graphs;" xmlns="http://www.w3.org/2000/svg" xmlns:xlink="http://www.w3.org/1999/xlink" x="0px" y="0px" viewBox="0 0 158.7 45" style="enable-background:new 0 0 158.7 45;" xml:space="preserve">
 <style type="text/css">
  .st0{fill:#C4242B;}
	.st1{fill:none;}
	.st2{fill:#333545;}
	.st3{fill:#FFFFFF;}
 </style>
 <metadata>
  <sfw xmlns="ns_sfw;">
   <slices>
   </slices>
   <sliceSourceBounds bottomLeftOrigin="true" height="45" width="158.7" x="98.3" y="-216.4">
   </sliceSourceBounds>
  </sfw>
 </metadata>
 <g>
  <path class="st0" d="M100,13.2l-2.6-4.4L92.7,11l-2.6-4.4l-4.7,2.2l-2.6-4.4l-4.7,2.2l-2.6-4.4l-4.7,2.2L68.3,0l-4.7,2.2L53.7,34
		l12,3.6c0.8-2.6,3.3-4.4,6.1-4.4c3.5,0,6.4,2.8,6.4,6.3l0,0.1c0,0.6,0,1.1-0.2,1.7L90.2,45L100,13.2">
  </path>
  <path class="st1" d="M19.9,15.8c-0.1,0-0.3,0-0.4,0c-1.4,0-2.6,1.1-2.6,2.6v7.8c0,1.4,1.1,2.6,2.6,2.6c0,0,0,0,0,0
		c1.4,0,2.6-1.1,2.6-2.6l0-7.8C22,17.1,21.1,16,19.9,15.8z">
  </path>
  <path class="st1" d="M34,15.8c-0.1,0-0.3,0-0.4,0c-1.4,0-2.6,1.1-2.6,2.6v7.8c0,1.4,1.1,2.6,2.6,2.6c0,0,0,0,0,0
		c0.7,0,1.3-0.3,1.8-0.7c0.5-0.5,0.8-1.1,0.8-1.8v-7.8C36.1,17.1,35.2,16,34,15.8z">
  </path>
  <path class="st1" d="M132.9,15.8L132.9,15.8c-0.8-0.1-1.7,0.1-2.3,0.7c-0.5,0.5-0.8,1.1-0.8,1.8v7.8c0,1.2,0.9,2.3,2.1,2.5
		c0.8,0.2,1.7-0.1,2.3-0.7c0.5-0.5,0.8-1.1,0.8-1.8v-7.8C135,17.1,134.1,16.1,132.9,15.8z">
  </path>
  <path class="st1" d="M5.8,16c-0.1,0-0.3,0-0.4,0l-2.6,0l0,12.6v0h2.6c1.4,0,2.6-1.1,2.6-2.6v-7.5C7.9,17.2,7,16.2,5.8,16z">
  </path>
  <path class="st2" d="M34.5,13.2c-0.3-0.1-0.6-0.1-0.9-0.1c-2.9,0-5.3,2.4-5.3,5.2v7.8c0,2.6,1.9,4.7,4.4,5.2
		c0.3,0.1,0.6,0.1,0.9,0.1c1.4,0,2.7-0.5,3.7-1.5c1-1,1.6-2.3,1.6-3.7v-7.8C38.8,15.8,37,13.6,34.5,13.2z M36.1,26.1
		c0,0.7-0.3,1.3-0.8,1.8c-0.5,0.5-1.1,0.7-1.8,0.7c0,0,0,0,0,0c-1.4,0-2.6-1.1-2.6-2.6v-7.8c0-1.4,1.1-2.6,2.6-2.6
		c0.1,0,0.3,0,0.4,0c1.2,0.2,2.1,1.3,2.1,2.5V26.1z">
  </path>
  <path class="st2" d="M5.3,13.2H2.7V6.6c0-0.7-0.5-1.2-1.1-1.3C1.2,5.2,0.7,5.4,0.4,5.7C0.1,5.9,0,6.3,0,6.6v23.2
		c0,0.7,0.5,1.2,1.1,1.3v0c0.1,0,0.2,0,0.3,0h3.9c2.9,0,5.3-2.4,5.3-5.2l0-7.5c0,0,0,0,0,0C10.6,15.6,8.2,13.2,5.3,13.2z M7.9,26
		c0,1.4-1.2,2.6-2.6,2.6H2.7v0l0-12.6l2.6,0c0.1,0,0.3,0,0.4,0c1.2,0.2,2.1,1.3,2.1,2.5V26z">
  </path>
  <path class="st2" d="M19.4,13.1c-1.4,0-2.8,0.5-3.8,1.5c-1,1-1.6,2.3-1.6,3.7v7.8c0,2.6,1.9,4.7,4.4,5.2c0.3,0.1,0.6,0.1,0.9,0.1
		c1.4,0,2.7-0.5,3.7-1.5c1-1,1.6-2.3,1.6-3.7l0-7.8c0,0,0,0,0,0C24.7,15.4,22.3,13.1,19.4,13.1z M19.4,28.7
		C19.4,28.7,19.4,28.7,19.4,28.7c-1.4,0-2.6-1.1-2.6-2.6v-7.8c0-1.4,1.1-2.6,2.6-2.6c0.1,0,0.3,0,0.4,0c1.2,0.2,2.1,1.3,2.1,2.5
		l0,7.8C22,27.5,20.8,28.7,19.4,28.7z">
  </path>
  <path class="st3" d="M76.5,13.3c-0.3,0-0.6-0.1-0.9-0.1H64.3c0,0,0,0,0,0c-0.7,0-1.3,0.6-1.3,1.3v15.6c0,0.6,0.4,1.2,1.1,1.3
		c0.4,0.1,0.9-0.1,1.2-0.4c0.3-0.2,0.4-0.6,0.4-0.9V15.8h5v14.3c0,0.6,0.4,1.2,1.1,1.3c0.1,0,0.2,0,0.2,0c0.7,0,1.3-0.6,1.3-1.3
		V15.8h2.5c0,0,0,0,0,0c1.4,0,2.5,1.1,2.5,2.5v11.8c0,0.6,0.4,1.2,1.1,1.3c0.4,0.1,0.9-0.1,1.2-0.4c0.3-0.2,0.4-0.6,0.4-0.9V18.3
		C80.7,15.8,79,13.7,76.5,13.3z">
  </path>
  <path class="st2" d="M133.3,13.2c-0.3-0.1-0.6-0.1-0.9-0.1c-2.9,0-5.3,2.4-5.3,5.2v7.8c0,2.6,1.9,4.7,4.4,5.2
		c1.7,0.3,3.4-0.2,4.7-1.5c1-1,1.6-2.3,1.6-3.7v-7.8C137.7,15.8,135.9,13.6,133.3,13.2z M135,26.2c0,0.7-0.3,1.3-0.8,1.8
		c-0.6,0.6-1.5,0.9-2.3,0.7c-1.2-0.2-2.1-1.3-2.1-2.5v-7.8c0-0.7,0.3-1.3,0.8-1.8c0.6-0.6,1.4-0.9,2.3-0.7v0
		c1.2,0.2,2.1,1.3,2.1,2.5V26.2z">
  </path>
  <path class="st2" d="M119.2,13.3c-0.3-0.1-0.6-0.1-0.9-0.1h-2.6V6.7c0-0.7-0.5-1.2-1.1-1.3c-0.4-0.1-0.9,0.1-1.2,0.4
		c-0.3,0.3-0.4,0.6-0.4,1v23.4c0,0.7,0.5,1.2,1.1,1.3l0,0c0.1,0,0.2,0,0.2,0c0,0,0,0,0,0c0.7,0,1.3-0.6,1.3-1.3V16h2.6c0,0,0,0,0,0
		c1.4,0,2.5,1.1,2.5,2.6V30c0,0.7,0.5,1.2,1.1,1.3c0.1,0,0.2,0,0.3,0c0.7,0,1.3-0.6,1.3-1.4l0-11.5C123.6,16,121.8,13.8,119.2,13.3z
		">
  </path>
  <path class="st2" d="M158.5,13.8c-0.2-0.3-0.5-0.5-0.9-0.6c-0.7-0.1-1.4,0.3-1.6,1c-0.9,3.5-1.7,6.9-2.6,10.4l0,0.1l0-0.1
		c-1.1-4.4-2.6-10.3-2.6-10.3c-0.1-0.5-0.5-0.9-1-1c-0.7-0.1-1.4,0.3-1.5,1c0,0.1-1.5,5.9-2.6,10.4l0,0.1l0-0.1
		c-1.1-4.4-2.6-10.3-2.6-10.4c-0.2-0.7-0.9-1.1-1.6-1c-0.7,0.2-1.1,0.9-1,1.6l3.9,15.6c0.2,0.6,0.7,1,1.3,1c0.6,0,1.2-0.4,1.3-1
		c0-0.1,1.5-5.9,2.6-10.4l0-0.1l0,0.1c1.2,4.5,2.6,10.4,2.6,10.4c0.2,0.6,0.7,1,1.3,1c0.6,0,1.2-0.4,1.3-1l3.9-15.6h0
		C158.8,14.4,158.7,14.1,158.5,13.8z">
  </path>
  <path class="st2" d="M107.4,22.3l-3.7-2.5c-0.5-0.4-0.9-1-0.9-1.6c0-0.7,0.2-1.3,0.7-1.7c0.5-0.5,1.2-0.7,1.8-0.5
		c0.7,0.1,1.2,0.5,1.5,1c0.2,0.3,0.6,0.6,1,0.6c0.3,0.1,0.6,0,0.9-0.2c0.3-0.2,0.5-0.5,0.6-0.8c0.1-0.3,0-0.7-0.1-1
		c-0.7-1.3-2-2.1-3.5-2.4h0c-1.5-0.2-3,0.3-4,1.3c-1.1,1-1.7,2.4-1.6,3.9c0.1,1.5,0.9,2.8,2.1,3.6l3.7,2.6c0.6,0.4,1,1,1,1.7
		c0.1,0.7-0.2,1.4-0.7,1.8c-0.6,0.5-1.3,0.7-2,0.6c-0.7-0.1-1.3-0.5-1.6-1.1c-0.2-0.3-0.6-0.6-0.9-0.6c-0.3-0.1-0.6,0-0.9,0.2
		c-0.3,0.2-0.5,0.5-0.6,0.8c-0.1,0.3-0.1,0.7,0.1,1c0.8,1.3,2.1,2.2,3.5,2.4l0,0l0.1,0c1.5,0.2,3-0.3,4.2-1.3c1.2-1,1.8-2.5,1.6-4
		C109.4,24.5,108.6,23.1,107.4,22.3z">
  </path>
  <path class="st2" d="M53.3,13.4c-0.2-0.2-0.4-0.3-0.7-0.3c-0.5-0.1-0.9,0.1-1.3,0.4l-6.3,6.9V6.6c0,0,0,0,0,0
		c0-0.7-0.6-1.3-1.4-1.3c0,0,0,0-0.1,0c-0.7,0-1.3,0.6-1.3,1.3V30c0,0.7,0.5,1.2,1.1,1.3c0.4,0.1,0.9-0.1,1.2-0.4
		c0.3-0.3,0.4-0.6,0.4-1v-5.5l1.7-1.8l4.4,8c0.2,0.3,0.6,0.6,1,0.6c0.3,0.1,0.6,0,0.9-0.1c0.3-0.2,0.6-0.5,0.7-0.8
		c0.1-0.3,0.1-0.7-0.1-1l-4.9-8.9l4.7-5.2C53.9,14.8,53.8,13.9,53.3,13.4z">
  </path>
  <path class="st3" d="M93.2,13.1L93.2,13.1c-0.8-0.1-1.4,0.3-1.6,0.9l-3.3,10.9L85,14c-0.2-0.7-0.9-1-1.6-0.9c0,0,0,0,0,0
		c-0.7,0.2-1.1,0.9-0.9,1.6l4.4,14.6l-1.4,4.5c-0.3,1-1.3,1.8-2.4,1.8c-0.3,0-0.7,0.1-0.9,0.4c-0.2,0.2-0.4,0.6-0.4,0.9
		c0,0.6,0.4,1.2,1.1,1.3v0c0.1,0,0.2,0,0.2,0c1.1,0,2.2-0.3,3.1-1c0.8-0.6,1.5-1.5,1.8-2.6l1.4-4.8l4.6-15
		C94.3,14.1,93.9,13.3,93.2,13.1z">
  </path>
 </g>
</svg>