<svg version="1.1" id="Layer_1" xmlns="http://www.w3.org/2000/svg" xmlns:xlink="http://www.w3.org/1999/xlink" x="0px" y="0px" viewBox="448 -95.3 1006.7 300.3" style="enable-background:new 448 -95.3 1006.7 300.3;" xml:space="preserve">
 <style type="text/css">
  .st0{fill:#1C2951;}
	.st1{fill:#F94A29;}
	.st2{fill:#FA9F29;}
	.st3{opacity:0.2;enable-background:new    ;}
 </style>
 <g>
  <g>
   <path class="st0" d="M830.8,79.3L846.6,93c-2.4,3.6-6,7.3-10.8,11.2c-4.8,3.8-10.5,7.1-17.1,9.7c-6.6,2.6-13.7,4-21.4,4
			c-11.9,0-22.4-2.7-31.6-8.1c-9.2-5.4-16.4-12.8-21.6-22.2s-7.8-20.1-7.8-31.9c0-8.8,1.5-17,4.5-24.7s7.2-14.4,12.7-20.2
			C759,5,765.5,0.4,773-2.9c7.6-3.3,15.9-4.9,25-4.9c11.9,0,21.7,2.3,29.6,7c7.9,4.7,14.2,10.4,19,17.1l-16,14.2
			c-3.8-5.5-8.3-10-13.4-13.3c-5.1-3.4-11.5-5-19.2-5c-7.8,0-14.5,2-20.2,5.9c-5.7,4-10.1,9.2-13.1,15.7c-3.1,6.5-4.6,13.6-4.6,21.3
			s1.5,14.6,4.6,20.9c3.1,6.2,7.3,11.2,12.9,14.9c5.5,3.7,12,5.6,19.4,5.6c7,0,12.6-1,16.8-3.1c4.3-2,7.7-4.4,10.3-7.1
			C826.6,83.5,828.8,81.2,830.8,79.3z">
   </path>
   <path class="st0" d="M852.7,72.6c0-8.2,1.9-15.7,5.8-22.5c3.8-6.8,9.1-12.3,15.9-16.4c6.8-4.1,14.7-6.1,23.7-6.1s16.9,2,23.7,6.1
			c6.8,4.1,12.1,9.5,15.9,16.4c3.8,6.8,5.8,14.3,5.8,22.5s-1.9,15.7-5.8,22.5c-3.8,6.8-9.1,12.3-15.9,16.5
			c-6.8,4.1-14.7,6.2-23.7,6.2s-16.9-2.1-23.7-6.2c-6.8-4.1-12.1-9.6-15.9-16.5C854.6,88.3,852.7,80.8,852.7,72.6z M898.1,99.4
			c5.4,0,9.9-1.4,13.4-4.1c3.5-2.8,6.2-6.2,7.9-10.3c1.7-4.1,2.6-8.2,2.6-12.3s-0.9-8.2-2.6-12.2c-1.7-4.1-4.4-7.5-7.9-10.3
			s-8-4.1-13.4-4.1c-5.4,0-9.9,1.4-13.4,4.1c-3.5,2.8-6.2,6.2-7.9,10.3c-1.7,4.1-2.6,8.2-2.6,12.2c0,4.1,0.9,8.2,2.6,12.3
			c1.7,4.1,4.4,7.6,7.9,10.3C888.2,98,892.7,99.4,898.1,99.4z">
   </path>
   <path class="st0" d="M947.7,17.2V-5.1H969v22.3H947.7z M947.7,114.9V30.5H969v84.4H947.7z">
   </path>
   <path class="st0" d="M977.2,114.9V30.5h20.3L998,40c2.2-2.4,5.3-4.9,9.4-7.5c4.1-2.6,9.4-3.9,16-3.9c10.4,0,18.4,3.1,24,9.4
			s8.4,14.8,8.4,25.5v51.3h-21.2V63.7c0-5.3-1.5-9.4-4.4-12.4c-2.9-3-6.7-4.5-11.4-4.5c-5.9,0-10.7,2.2-14.6,6.5
			c-3.8,4.3-5.8,9.6-5.8,15.8v45.7L977.2,114.9L977.2,114.9z">
   </path>
   <path class="st1" d="M1317.5,50.5l37.2-55.6h-35.4L1300,26l-20-31.1h-39.2l1.8,2.5c-0.4-0.2-0.9-0.4-1.3-0.5
			c-8.9-3.5-18.6-5.2-28.9-5.2c-12.4,0-23.2,2.8-32.6,8.3c-7.2,4.3-13.2,9.7-18,16.4c-5.2-6.5-11.7-11.6-19.5-15
			c-9.7-4.3-20.7-6.4-33-6.4h-46.1v120h45.9c12.2,0,23.2-2.2,33-6.6c7.8-3.5,14.3-8.5,19.5-14.8c4.8,6.7,10.9,12.1,18.3,16.4
			c9.4,5.4,20.2,8.1,32.5,8.1c11.5,0,21.8-2.3,30.9-6.8l-2.5,3.8h34.9l23.2-36.9l23.9,36.9h39.8L1317.5,50.5z M1132.2,77.9
			c-5.8,5.9-13.8,8.9-24.1,8.9h-13V22.7h13c11.3,0,19.6,2.9,24.8,8.8c5.3,5.9,7.9,13.6,7.9,23.2S1137.9,72,1132.2,77.9z
			 M1259.6,86.7l-15.2-14.3c-4.2,5.2-8.5,9-12.8,11.5s-10,3.8-17.1,3.8c-6.4,0-11.9-1.4-16.7-4.3c-4.8-2.9-8.5-6.9-11.1-12
			c-2.6-5.1-3.9-10.8-3.9-17.2c0-6.2,1.3-11.8,3.8-16.8s6.1-8.9,10.9-11.9c4.7-2.9,10.5-4.4,17.2-4.4c6,0,11.3,1.4,16,4.1
			c4.7,2.8,8.7,6.4,12.1,11l15.8-15.9l23.1,33.2L1259.6,86.7z">
   </path>
  </g>
  <g>
   <g>
    <path id="XMLID_20_" class="st1" d="M580.6,88.8c3.3-8.6,9.6-15.7,17.8-20l14,8c5.6,3.2,4.4,11.9-0.6,14.8l-28.5,16.3
				c-1.6,0.9-3.7,0.3-4.5-1.4c-0.2-0.4-0.3-0.8-0.4-1.2C577.8,99.7,578.6,94.1,580.6,88.8z">
    </path>
    <path class="st2" d="M625.1,51.5c0-4.8-2.5-9.3-6.5-12L540.1-5.2c0.3,7.8,1.8,15.6,4.4,23c6,16.3,17.6,30.1,32.7,39l35,20
				c5.6,3.2,4.4,12-0.6,14.8l8.8-5c2.8-1.6,4.5-4.5,4.5-7.7V68.7C624.9,68.6,625.1,51.5,625.1,51.5z">
    </path>
    <path class="st3" d="M612.2,76.8l-14-8c0,0,8.9,7.5,12.3,11.3c3.3,3.7,1.1,11.4,1.1,11.4C616.7,88.9,617.8,80,612.2,76.8z">
    </path>
    <path id="XMLID_19_" class="st1" d="M674.6,20.9c-3.3,8.6-9.6,15.7-17.8,20l-14-8c-5.6-3.2-4.4-11.9,0.6-14.8l28.5-16.3
				c1.6-0.9,3.7-0.3,4.5,1.4c0.2,0.4,0.3,0.8,0.4,1.2C677.3,10,676.5,15.6,674.6,20.9z">
    </path>
    <path class="st2" d="M630,58.2c0,4.8,2.5,9.3,6.5,12l78.5,44.7c-0.3-7.8-1.8-15.6-4.4-23c-6-16.3-17.6-30.1-32.7-39l-35-20
				c-5.6-3.2-4.4-12,0.6-14.8l-8.8,5c-2.8,1.6-4.5,4.5-4.5,7.7V41C630.2,41.1,630,58.2,630,58.2z">
    </path>
    <path class="st3" d="M642.9,32.9l14,8c0,0-8.9-7.5-12.3-11.3c-3.3-3.7-1.1-11.4-1.1-11.4C638.4,20.8,637.3,29.7,642.9,32.9z">
    </path>
   </g>
  </g>
 </g>
</svg>