<svg version="1.1" id="Layer_1" xmlns="http://www.w3.org/2000/svg" xmlns:xlink="http://www.w3.org/1999/xlink" x="0px" y="0px" viewBox="0 0 138.5 138.5" style="enable-background:new 0 0 138.5 138.5;" xml:space="preserve">
 <style type="text/css">
  .st0{fill:#0032A0;}
	.st1{fill:#FFFFFF;}
 </style>
 <g>
  <circle class="st0" cx="69.2" cy="69.2" r="69.2">
  </circle>
  <path class="st1" d="M37.7,57.2h-5.9v12.6c-5.2-4.7-10.4-9.3-15.7-14v25.6H22V68.7c5,4.4,10.3,9.3,15.7,14L37.7,57.2z M50.8,81.3
		h-5.9V57.2h5.9V81.3z M66.2,82.7c-4.2-7.9-8.4-17-12.6-25.6h6.7l5.9,13.1l5.7-13.1h6.5C74.4,65.7,70.3,74.8,66.2,82.7L66.2,82.7z
		 M97.2,62.4h-10v4.2h10.1v5.3H87.2V76h10.1v5.3h-16V57.1h16L97.2,62.4z M112.3,55.8c-4.1,8.1-8.2,16.8-12.3,25.6h6.2l1.2-2.9h9.7
		l1.2,2.9h6.4C120.6,72.5,116.4,63.7,112.3,55.8z M109.3,73.9l3.1-7l3,7H109.3z">
  </path>
 </g>
</svg>